<mxfile host="app.diagrams.net" modified="2020-03-29T19:27:39.271Z" agent="5.0 (X11)" etag="MogtjVx9NJ56lod5SLEf" version="12.9.4" type="github">
  <diagram id="C5RBs43oDa-KdzZeNtuy" name="Page-1">
    <mxGraphModel dx="1048" dy="624" grid="1" gridSize="10" guides="1" tooltips="1" connect="1" arrows="1" fold="1" page="1" pageScale="1" pageWidth="827" pageHeight="1169" math="0" shadow="0">
      <root>
        <mxCell id="WIyWlLk6GJQsqaUBKTNV-0" />
        <mxCell id="WIyWlLk6GJQsqaUBKTNV-1" parent="WIyWlLk6GJQsqaUBKTNV-0" />
        <mxCell id="KYLblnnbDu1cIGryHhEb-2" style="edgeStyle=orthogonalEdgeStyle;rounded=0;orthogonalLoop=1;jettySize=auto;html=1;exitX=0.5;exitY=1;exitDx=0;exitDy=0;entryX=0.5;entryY=0;entryDx=0;entryDy=0;" edge="1" parent="WIyWlLk6GJQsqaUBKTNV-1" source="KYLblnnbDu1cIGryHhEb-0" target="KYLblnnbDu1cIGryHhEb-1">
          <mxGeometry relative="1" as="geometry" />
        </mxCell>
        <mxCell id="KYLblnnbDu1cIGryHhEb-0" value="&lt;div&gt;(0)&lt;/div&gt;&lt;div&gt;config_essentials&lt;/div&gt;&lt;div&gt;create_db&lt;br&gt;&lt;/div&gt;" style="rounded=1;whiteSpace=wrap;html=1;" vertex="1" parent="WIyWlLk6GJQsqaUBKTNV-1">
          <mxGeometry x="160" y="80" width="120" height="60" as="geometry" />
        </mxCell>
        <mxCell id="KYLblnnbDu1cIGryHhEb-4" style="edgeStyle=orthogonalEdgeStyle;rounded=0;orthogonalLoop=1;jettySize=auto;html=1;exitX=0.5;exitY=1;exitDx=0;exitDy=0;entryX=0.5;entryY=0;entryDx=0;entryDy=0;" edge="1" parent="WIyWlLk6GJQsqaUBKTNV-1" source="KYLblnnbDu1cIGryHhEb-1" target="KYLblnnbDu1cIGryHhEb-3">
          <mxGeometry relative="1" as="geometry" />
        </mxCell>
        <mxCell id="KYLblnnbDu1cIGryHhEb-1" value="&lt;div&gt;(4)&lt;/div&gt;&lt;div&gt;install packages&lt;br&gt;&lt;/div&gt;" style="rounded=1;whiteSpace=wrap;html=1;" vertex="1" parent="WIyWlLk6GJQsqaUBKTNV-1">
          <mxGeometry x="160" y="200" width="120" height="60" as="geometry" />
        </mxCell>
        <mxCell id="KYLblnnbDu1cIGryHhEb-12" style="edgeStyle=orthogonalEdgeStyle;rounded=0;orthogonalLoop=1;jettySize=auto;html=1;exitX=0.5;exitY=1;exitDx=0;exitDy=0;entryX=0;entryY=0.5;entryDx=0;entryDy=0;" edge="1" parent="WIyWlLk6GJQsqaUBKTNV-1" source="KYLblnnbDu1cIGryHhEb-3" target="KYLblnnbDu1cIGryHhEb-5">
          <mxGeometry relative="1" as="geometry" />
        </mxCell>
        <mxCell id="KYLblnnbDu1cIGryHhEb-15" style="edgeStyle=orthogonalEdgeStyle;rounded=0;orthogonalLoop=1;jettySize=auto;html=1;entryX=0.5;entryY=0;entryDx=0;entryDy=0;" edge="1" parent="WIyWlLk6GJQsqaUBKTNV-1" source="KYLblnnbDu1cIGryHhEb-3" target="KYLblnnbDu1cIGryHhEb-14">
          <mxGeometry relative="1" as="geometry" />
        </mxCell>
        <mxCell id="KYLblnnbDu1cIGryHhEb-3" value="&lt;div&gt;(5)&lt;/div&gt;&lt;div&gt;run irods&lt;/div&gt;&lt;div&gt;install script&lt;br&gt;&lt;/div&gt;" style="rounded=1;whiteSpace=wrap;html=1;" vertex="1" parent="WIyWlLk6GJQsqaUBKTNV-1">
          <mxGeometry x="160" y="320" width="120" height="60" as="geometry" />
        </mxCell>
        <mxCell id="KYLblnnbDu1cIGryHhEb-10" style="edgeStyle=orthogonalEdgeStyle;rounded=0;orthogonalLoop=1;jettySize=auto;html=1;exitX=0.5;exitY=1;exitDx=0;exitDy=0;entryX=0.5;entryY=0;entryDx=0;entryDy=0;" edge="1" parent="WIyWlLk6GJQsqaUBKTNV-1" source="KYLblnnbDu1cIGryHhEb-5" target="KYLblnnbDu1cIGryHhEb-6">
          <mxGeometry relative="1" as="geometry" />
        </mxCell>
        <mxCell id="KYLblnnbDu1cIGryHhEb-5" value="&lt;div&gt;(1) &lt;br&gt;&lt;/div&gt;&lt;div&gt;uninstall&lt;/div&gt;&lt;div&gt;packages&lt;br&gt;&lt;/div&gt;" style="rounded=1;whiteSpace=wrap;html=1;" vertex="1" parent="WIyWlLk6GJQsqaUBKTNV-1">
          <mxGeometry x="600" y="370" width="120" height="60" as="geometry" />
        </mxCell>
        <mxCell id="KYLblnnbDu1cIGryHhEb-11" style="edgeStyle=orthogonalEdgeStyle;rounded=0;orthogonalLoop=1;jettySize=auto;html=1;exitX=0.5;exitY=1;exitDx=0;exitDy=0;entryX=0.5;entryY=0;entryDx=0;entryDy=0;" edge="1" parent="WIyWlLk6GJQsqaUBKTNV-1" source="KYLblnnbDu1cIGryHhEb-6" target="KYLblnnbDu1cIGryHhEb-7">
          <mxGeometry relative="1" as="geometry" />
        </mxCell>
        <mxCell id="KYLblnnbDu1cIGryHhEb-6" value="&lt;div&gt;(2)&lt;/div&gt;&lt;div&gt;wipe ICAT&lt;br&gt;&lt;/div&gt;" style="rounded=1;whiteSpace=wrap;html=1;" vertex="1" parent="WIyWlLk6GJQsqaUBKTNV-1">
          <mxGeometry x="600" y="490" width="120" height="60" as="geometry" />
        </mxCell>
        <mxCell id="KYLblnnbDu1cIGryHhEb-13" style="edgeStyle=orthogonalEdgeStyle;rounded=0;orthogonalLoop=1;jettySize=auto;html=1;exitX=0.5;exitY=1;exitDx=0;exitDy=0;entryX=0;entryY=0.5;entryDx=0;entryDy=0;" edge="1" parent="WIyWlLk6GJQsqaUBKTNV-1" source="KYLblnnbDu1cIGryHhEb-7" target="KYLblnnbDu1cIGryHhEb-1">
          <mxGeometry relative="1" as="geometry">
            <mxPoint x="120" y="420" as="targetPoint" />
            <Array as="points">
              <mxPoint x="660" y="690" />
              <mxPoint x="120" y="690" />
              <mxPoint x="120" y="230" />
            </Array>
          </mxGeometry>
        </mxCell>
        <mxCell id="KYLblnnbDu1cIGryHhEb-7" value="&lt;div&gt;(3)&lt;/div&gt;&lt;div&gt;rename iRODS&lt;/div&gt;&lt;div&gt;directories&lt;br&gt;&lt;/div&gt;" style="rounded=1;whiteSpace=wrap;html=1;" vertex="1" parent="WIyWlLk6GJQsqaUBKTNV-1">
          <mxGeometry x="600" y="610" width="120" height="60" as="geometry" />
        </mxCell>
        <mxCell id="KYLblnnbDu1cIGryHhEb-17" style="edgeStyle=orthogonalEdgeStyle;rounded=0;orthogonalLoop=1;jettySize=auto;html=1;exitX=0.5;exitY=1;exitDx=0;exitDy=0;entryX=0.5;entryY=0;entryDx=0;entryDy=0;" edge="1" parent="WIyWlLk6GJQsqaUBKTNV-1" source="KYLblnnbDu1cIGryHhEb-14" target="KYLblnnbDu1cIGryHhEb-16">
          <mxGeometry relative="1" as="geometry" />
        </mxCell>
        <mxCell id="KYLblnnbDu1cIGryHhEb-14" value="&lt;div&gt;(6) &lt;br&gt;&lt;/div&gt;&lt;div&gt;install python&lt;/div&gt;&lt;div&gt;rule engine plugin&lt;br&gt;&lt;/div&gt;" style="rounded=1;whiteSpace=wrap;html=1;" vertex="1" parent="WIyWlLk6GJQsqaUBKTNV-1">
          <mxGeometry x="160" y="440" width="120" height="60" as="geometry" />
        </mxCell>
        <mxCell id="KYLblnnbDu1cIGryHhEb-18" style="edgeStyle=orthogonalEdgeStyle;rounded=0;orthogonalLoop=1;jettySize=auto;html=1;exitX=1;exitY=0.5;exitDx=0;exitDy=0;" edge="1" parent="WIyWlLk6GJQsqaUBKTNV-1" source="KYLblnnbDu1cIGryHhEb-16">
          <mxGeometry relative="1" as="geometry">
            <mxPoint x="520" y="400" as="targetPoint" />
          </mxGeometry>
        </mxCell>
        <mxCell id="KYLblnnbDu1cIGryHhEb-16" value="&lt;div&gt;(7) &lt;br&gt;&lt;/div&gt;&lt;div&gt;install python REP as&lt;/div&gt;&lt;div&gt;the only REP&lt;br&gt;&lt;/div&gt;" style="rounded=1;whiteSpace=wrap;html=1;" vertex="1" parent="WIyWlLk6GJQsqaUBKTNV-1">
          <mxGeometry x="160" y="560" width="120" height="60" as="geometry" />
        </mxCell>
        <mxCell id="KYLblnnbDu1cIGryHhEb-19" value="&lt;h2&gt;Installing and Testing iRODS&lt;/h2&gt;" style="text;html=1;strokeColor=none;fillColor=none;align=center;verticalAlign=middle;whiteSpace=wrap;rounded=0;" vertex="1" parent="WIyWlLk6GJQsqaUBKTNV-1">
          <mxGeometry x="430" y="100" width="160" height="20" as="geometry" />
        </mxCell>
      </root>
    </mxGraphModel>
  </diagram>
</mxfile>
